# This file uses centimeters as units for non-parametric coordinates.

mtllib TheForgottenPiece.mtl
g default
v -66.860633 -6.555555 -9.836491
v -66.837897 -6.555555 -9.836491
v -66.860633 -6.539022 -9.836491
v -66.837897 -6.539022 -9.836491
v -66.860633 -6.539022 -9.976599
v -66.837897 -6.539022 -9.976599
v -66.860633 -6.555555 -9.976599
v -66.837897 -6.555555 -9.976599
vt 0.946313 0.444133
vt 0.952160 0.444133
vt 0.952160 0.448384
vt 0.946313 0.448384
vt 0.988189 0.448384
vt 0.946313 0.484414
vt 0.910284 0.444133
vt 0.952160 0.408104
vt 0.988189 0.444133
vt 0.946313 0.408104
vt 0.952160 0.484414
vt 0.910284 0.448384
vn 0.000000 0.000000 1.000000
vn 0.000000 0.000000 1.000000
vn 0.000000 0.000000 1.000000
vn 0.000000 0.000000 1.000000
vn 0.000000 1.000000 0.000000
vn 0.000000 1.000000 0.000000
vn 0.000000 1.000000 0.000000
vn 0.000000 1.000000 0.000000
vn 0.000000 -1.000000 0.000000
vn 0.000000 -1.000000 0.000000
vn 0.000000 -1.000000 0.000000
vn 0.000000 -1.000000 0.000000
vn 1.000000 0.000000 0.000000
vn 1.000000 0.000000 0.000000
vn 1.000000 0.000000 0.000000
vn 1.000000 0.000000 0.000000
vn -1.000000 0.000000 0.000000
vn -1.000000 0.000000 0.000000
vn -1.000000 0.000000 0.000000
vn -1.000000 0.000000 0.000000
s off
g WoodenDetail78 PillarSipportBeams1 House6
usemtl lambert3SG
f 1/1/1 2/2/2 4/3/3 3/4/4
f 3/4/5 4/3/6 6/11/7 5/6/8
f 7/10/9 8/8/10 2/2/11 1/1/12
f 2/2/13 8/9/14 6/5/15 4/3/16
f 7/7/17 1/1/18 3/4/19 5/12/20
