# author: headus 3D tools
#  using: ply2obj v1.12
#   from: uvlayout v2.11.04
# 100 vertices
v 5.38923 28.33618 -9.33442
v -5.38921 28.33618 -9.33442
v -10.77846 28.33618 -0.00002
v -5.38923 28.33618 9.33441
v 5.38923 28.33618 9.33441
v 10.77845 28.33618 -0.00002
v 5.38923 36.49533 -9.33442
v -5.38921 36.49533 -9.33442
v -10.77846 36.49533 -0.00002
v -5.38923 36.49533 9.33441
v 5.38923 36.49533 9.33441
v 10.77845 36.49533 -0.00002
v -16.63826 25.62023 -20.79730
v -20.79731 25.62023 -16.63826
v -20.79731 -50.27168 -16.63826
v -16.63826 -50.27168 -20.79730
v 20.79730 25.62023 -16.63826
v 16.63826 25.62023 -20.79730
v 16.63826 -50.27168 -20.79730
v 20.79730 -50.27168 -16.63826
v 16.63826 25.62023 20.79730
v 20.79730 25.62023 16.63826
v 20.79730 -50.27168 16.63826
v 16.63826 -50.27168 20.79730
v -20.79731 25.62023 16.63826
v -16.63826 25.62023 20.79730
v -16.63826 -50.27168 20.79730
v -20.79731 -50.27168 16.63826
v -21.09962 -54.71471 25.25864
v -25.25867 -54.71471 21.09962
v -26.36932 -53.60407 22.21026
v -22.21027 -53.60407 26.36931
v -22.21027 -53.60407 -26.36931
v -26.36932 -53.60407 -22.21027
v -25.25867 -54.71471 -21.09962
v -21.09962 -54.71471 -25.25867
v 22.21026 -53.60407 26.36931
v 26.36931 -53.60407 22.21026
v 25.25866 -54.71471 21.09962
v 21.09962 -54.71471 25.25864
v 21.09962 -54.71471 -25.25867
v 25.25866 -54.71471 -21.09962
v 26.36931 -53.60407 -22.21027
v 22.21026 -53.60407 -26.36931
v 21.09962 -50.27168 25.25864
v 25.25866 -50.27168 21.09962
v 26.36931 -51.38232 22.21026
v 22.21026 -51.38232 26.36931
v 22.21026 -51.38232 -26.36931
v 26.36931 -51.38232 -22.21027
v 25.25866 -50.27168 -21.09962
v 21.09962 -50.27168 -25.25867
v -22.21027 -51.38232 26.36931
v -26.36932 -51.38232 22.21026
v -25.25867 -50.27168 21.09962
v -21.09962 -50.27168 25.25864
v -21.09962 -50.27168 -25.25867
v -25.25867 -50.27168 -21.09962
v -26.36932 -51.38232 -22.21027
v -22.21027 -51.38232 -26.36931
v 22.21026 26.73088 26.36931
v 26.36931 26.73088 22.21026
v 25.25866 25.62023 21.09962
v 21.09962 25.62023 25.25864
v 21.09962 25.62023 -25.25867
v 25.25866 25.62023 -21.09962
v 26.36931 26.73088 -22.21027
v 22.21026 26.73088 -26.36931
v -21.09962 25.62023 25.25864
v -25.25867 25.62023 21.09962
v -26.36932 26.73088 22.21026
v -22.21027 26.73088 26.36931
v -25.25867 25.62023 -21.09962
v -21.09962 25.62023 -25.25867
v -22.21027 26.73088 -26.36931
v -26.36932 26.73088 -22.21027
v 21.09962 30.06326 25.25864
v 25.25866 30.06326 21.09962
v 26.36931 28.95261 22.21026
v 22.21026 28.95261 26.36931
v 22.21026 28.95261 -26.36931
v 26.36931 28.95261 -22.21027
v 25.25866 30.06326 -21.09962
v 21.09962 30.06326 -25.25867
v -22.21027 28.95261 26.36931
v -26.36932 28.95261 22.21026
v -25.25867 30.06326 21.09962
v -21.09962 30.06326 25.25864
v -26.36932 28.95261 -22.21027
v -22.21027 28.95261 -26.36931
v -21.09962 30.06326 -25.25867
v -25.25867 30.06326 -21.09962
v -16.63826 30.06326 20.79730
v -20.79731 30.06326 16.63826
v 20.79730 30.06326 16.63826
v 16.63826 30.06326 20.79730
v -20.79731 30.06326 -16.63826
v -16.63826 30.06326 -20.79730
v 16.63826 30.06326 -20.79730
v 20.79730 30.06326 -16.63826
# 236 normals
vn 0.500000 0.000000 -0.866020
vn -0.500000 0.000000 -0.866020
vn -0.500000 0.000000 -0.866020
vn 0.500000 0.000000 -0.866020
vn -1.000000 0.000000 0.000000
vn -1.000000 0.000000 0.000000
vn -0.500000 0.000000 0.866020
vn -0.500000 0.000000 0.866020
vn 0.500000 0.000000 0.866020
vn 0.500000 0.000000 0.866020
vn 1.000000 0.000000 0.000000
vn 1.000000 0.000000 0.000000
vn 0.000000 1.000000 0.000000
vn 0.000000 1.000000 0.000000
vn 0.000000 1.000000 0.000000
vn 0.000000 1.000000 0.000000
vn 0.000000 -1.000000 0.000000
vn 0.000000 -1.000000 0.000000
vn 0.000000 -1.000000 0.000000
vn 0.000000 -1.000000 0.000000
vn -0.707044 0.000000 -0.707044
vn -0.707044 0.000000 -0.707044
vn -0.707044 0.000000 -0.707044
vn -0.707044 0.000000 -0.707044
vn 0.000000 1.000000 0.000000
vn 0.000000 1.000000 0.000000
vn 0.000000 1.000000 0.000000
vn 0.000000 1.000000 0.000000
vn 0.000000 -1.000000 0.000000
vn 0.000000 -1.000000 0.000000
vn 0.000000 -1.000000 0.000000
vn 0.000000 -1.000000 0.000000
vn 0.707044 0.000000 -0.707044
vn 0.707044 0.000000 -0.707044
vn 0.707044 0.000000 -0.707044
vn 0.707044 0.000000 -0.707044
vn 0.000000 1.000000 0.000000
vn 0.000000 1.000000 0.000000
vn 0.000000 1.000000 0.000000
vn 0.000000 1.000000 0.000000
vn 0.000000 -1.000000 0.000000
vn 0.000000 -1.000000 0.000000
vn 0.000000 -1.000000 0.000000
vn 0.000000 -1.000000 0.000000
vn 0.707044 0.000000 0.707044
vn 0.707044 0.000000 0.707044
vn 0.707044 0.000000 0.707044
vn 0.707044 0.000000 0.707044
vn 0.000000 1.000000 0.000000
vn 0.000000 1.000000 0.000000
vn 0.000000 1.000000 0.000000
vn 0.000000 1.000000 0.000000
vn 0.000000 -1.000000 0.000000
vn 0.000000 -1.000000 0.000000
vn 0.000000 -1.000000 0.000000
vn 0.000000 -1.000000 0.000000
vn -0.707044 0.000000 0.707044
vn -0.707044 0.000000 0.707044
vn -0.707044 0.000000 0.707044
vn -0.707044 0.000000 0.707044
vn 0.000000 1.000000 0.000000
vn 0.000000 1.000000 0.000000
vn 0.000000 1.000000 0.000000
vn 0.000000 1.000000 0.000000
vn -0.683910 -0.728133 0.044101
vn -0.044101 -0.728133 0.683910
vn -0.089697 -0.747665 0.657938
vn -0.657938 -0.747665 0.089697
vn -0.707044 0.000000 0.707044
vn -0.707044 0.000000 0.707044
vn -0.707044 0.000000 0.707044
vn -0.707044 0.000000 0.707044
vn -0.707044 0.000000 -0.707044
vn -0.707044 0.000000 -0.707044
vn -0.707044 0.000000 -0.707044
vn -0.707044 0.000000 -0.707044
vn -0.657938 -0.747665 -0.089697
vn -0.089697 -0.747665 -0.657938
vn -0.044101 -0.728133 -0.683910
vn -0.683910 -0.728133 -0.044101
vn 0.707044 0.000000 0.707044
vn 0.707044 0.000000 0.707044
vn 0.707044 0.000000 0.707044
vn 0.707044 0.000000 0.707044
vn 0.657938 -0.747665 0.089697
vn 0.089697 -0.747665 0.657938
vn 0.044101 -0.728133 0.683910
vn 0.683910 -0.728133 0.044101
vn 0.683910 -0.728133 -0.044101
vn 0.044101 -0.728133 -0.683910
vn 0.089697 -0.747665 -0.657938
vn 0.657938 -0.747665 -0.089697
vn 0.707044 0.000000 -0.707044
vn 0.707044 0.000000 -0.707044
vn 0.707044 0.000000 -0.707044
vn 0.707044 0.000000 -0.707044
vn 0.683910 0.728133 0.044101
vn 0.044101 0.728133 0.683910
vn 0.089697 0.747665 0.657938
vn 0.657938 0.747665 0.089697
vn 0.657938 0.747665 -0.089697
vn 0.089697 0.747665 -0.657938
vn 0.044101 0.728133 -0.683910
vn 0.683910 0.728133 -0.044101
vn -0.657938 0.747665 0.089697
vn -0.089697 0.747665 0.657938
vn -0.044101 0.728133 0.683910
vn -0.683910 0.728133 0.044101
vn -0.683910 0.728133 -0.044101
vn -0.044101 0.728133 -0.683910
vn -0.089697 0.747665 -0.657938
vn -0.657938 0.747665 -0.089697
vn 0.707044 0.000000 0.707044
vn 0.707044 0.000000 0.707044
vn 0.707044 0.000000 0.707044
vn 0.707044 0.000000 0.707044
vn 0.408198 -0.816426 0.408198
vn 0.408198 -0.816426 0.408198
vn 0.408198 -0.816426 0.408198
vn 0.408198 -0.816426 0.408198
vn 0.408198 -0.816426 -0.408198
vn 0.408198 -0.816426 -0.408198
vn 0.408198 -0.816426 -0.408198
vn 0.408198 -0.816426 -0.408198
vn 0.707044 0.000000 -0.707044
vn 0.707044 0.000000 -0.707044
vn 0.707044 0.000000 -0.707044
vn 0.707044 0.000000 -0.707044
vn -0.408198 -0.816426 0.408198
vn -0.408198 -0.816426 0.408198
vn -0.408198 -0.816426 0.408198
vn -0.408198 -0.816426 0.408198
vn -0.707044 0.000000 0.707044
vn -0.707044 0.000000 0.707044
vn -0.707044 0.000000 0.707044
vn -0.707044 0.000000 0.707044
vn -0.408198 -0.816426 -0.408198
vn -0.408198 -0.816426 -0.408198
vn -0.408198 -0.816426 -0.408198
vn -0.408198 -0.816426 -0.408198
vn -0.707044 0.000000 -0.707044
vn -0.707044 0.000000 -0.707044
vn -0.707044 0.000000 -0.707044
vn -0.707044 0.000000 -0.707044
vn 0.000000 1.000000 0.000000
vn 0.000000 1.000000 0.000000
vn 0.000000 1.000000 0.000000
vn 0.683910 0.728133 0.044101
vn 0.044101 0.728133 0.683910
vn 0.089697 0.747665 0.657938
vn 0.657938 0.747665 0.089697
vn 0.657938 0.747665 -0.089697
vn 0.089697 0.747665 -0.657938
vn 0.044101 0.728133 -0.683910
vn 0.683910 0.728133 -0.044101
vn 0.000000 1.000000 0.000000
vn 0.000000 1.000000 0.000000
vn 0.000000 1.000000 0.000000
vn -0.657938 0.747665 0.089697
vn -0.089697 0.747665 0.657938
vn -0.044101 0.728133 0.683910
vn -0.683910 0.728133 0.044101
vn 0.000000 1.000000 0.000000
vn 0.000000 1.000000 0.000000
vn 0.000000 1.000000 0.000000
vn -0.089697 0.747665 -0.657938
vn -0.657938 0.747665 -0.089697
vn -0.683910 0.728133 -0.044101
vn -0.044101 0.728133 -0.683910
vn 0.000000 1.000000 0.000000
vn 0.000000 1.000000 0.000000
vn 0.000000 1.000000 0.000000
vn 0.000000 0.000000 1.000000
vn 0.000000 0.000000 1.000000
vn 0.000000 0.000000 1.000000
vn 0.000000 0.000000 1.000000
vn -1.000000 0.000000 0.000000
vn -1.000000 0.000000 0.000000
vn -1.000000 0.000000 0.000000
vn -1.000000 0.000000 0.000000
vn 0.000000 0.000000 -1.000000
vn 0.000000 0.000000 -1.000000
vn 0.000000 0.000000 -1.000000
vn 0.000000 0.000000 -1.000000
vn 1.000000 0.000000 0.000000
vn 1.000000 0.000000 0.000000
vn 1.000000 0.000000 0.000000
vn 1.000000 0.000000 0.000000
vn 0.707044 -0.707044 0.000000
vn 0.707044 -0.707044 0.000000
vn 0.707044 -0.707044 0.000000
vn 0.707044 -0.707044 0.000000
vn 0.000000 -0.707044 0.707044
vn 0.000000 -0.707044 0.707044
vn 0.000000 -0.707044 0.707044
vn 0.000000 -0.707044 0.707044
vn -0.707044 -0.707044 0.000000
vn -0.707044 -0.707044 0.000000
vn -0.707044 -0.707044 0.000000
vn -0.707044 -0.707044 0.000000
vn 0.000000 -0.707044 -0.707044
vn 0.000000 -0.707044 -0.707044
vn 0.000000 -0.707044 -0.707044
vn 0.000000 -0.707044 -0.707044
vn 0.000000 0.000000 1.000000
vn 0.000000 0.000000 1.000000
vn 0.000000 0.000000 1.000000
vn 0.000000 0.000000 1.000000
vn 0.000000 0.000000 -1.000000
vn 0.000000 0.000000 -1.000000
vn 0.000000 0.000000 -1.000000
vn 0.000000 0.000000 -1.000000
vn 1.000000 0.000000 0.000000
vn 1.000000 0.000000 0.000000
vn 1.000000 0.000000 0.000000
vn 1.000000 0.000000 0.000000
vn -1.000000 0.000000 0.000000
vn -1.000000 0.000000 0.000000
vn -1.000000 0.000000 0.000000
vn -1.000000 0.000000 0.000000
vn 0.000000 0.000000 1.000000
vn 0.000000 0.000000 1.000000
vn 0.000000 0.000000 1.000000
vn 0.000000 0.000000 1.000000
vn -1.000000 0.000000 0.000000
vn -1.000000 0.000000 0.000000
vn -1.000000 0.000000 0.000000
vn -1.000000 0.000000 0.000000
vn 0.000000 0.000000 -1.000000
vn 0.000000 0.000000 -1.000000
vn 0.000000 0.000000 -1.000000
vn 0.000000 0.000000 -1.000000
vn 1.000000 0.000000 0.000000
vn 1.000000 0.000000 0.000000
vn 1.000000 0.000000 0.000000
vn 1.000000 0.000000 0.000000
# 170 uv coords
vt 0.832164 0.173526
vt 0.292807 0.415804
vt 0.701812 0.307970
vt 0.720447 0.213153
vt 0.693198 0.286594
vt 0.699401 0.295617
vt 0.717981 0.200810
vt 0.711737 0.191816
vt 0.819793 0.175846
vt 0.810724 0.181983
vt 0.284338 0.394371
vt 0.290481 0.403435
vt 0.378428 0.027191
vt 0.384548 0.036270
vt 0.374490 0.431142
vt 0.365451 0.437322
vt 0.885177 0.431158
vt 0.876129 0.437321
vt 0.886523 0.095136
vt 0.892711 0.104169
vt 0.376129 0.014816
vt 0.353092 0.439700
vt 0.863766 0.439681
vt 0.895101 0.116526
vt 0.059618 0.032647
vt 0.032645 0.059611
vt 0.302358 0.059621
vt 0.275389 0.032652
vt 0.032651 0.275380
vt 0.059618 0.302348
vt 0.275385 0.302353
vt 0.302355 0.275389
vt 0.940521 0.423041
vt 0.940521 0.353153
vt 0.993426 0.353153
vt 0.993426 0.423041
vt 0.940522 0.283266
vt 0.993426 0.283266
vt 0.940522 0.213380
vt 0.993427 0.213378
vt 0.940520 0.143493
vt 0.993424 0.143491
vt 0.940521 0.073605
vt 0.993426 0.073605
vt 0.940522 0.003717
vt 0.993426 0.003717
vt 0.030693 0.003717
vt 0.304316 0.003724
vt 0.304311 0.331282
vt 0.030692 0.331276
vt 0.003717 0.030682
vt 0.003725 0.304309
vt 0.331285 0.030691
vt 0.331281 0.304319
vt 0.995808 0.777176
vt 0.995808 0.992944
vt 0.503717 0.992944
vt 0.503717 0.777176
vt 0.995808 0.739038
vt 0.503717 0.739038
vt 0.503717 0.523268
vt 0.995808 0.523268
vt 0.995808 0.485130
vt 0.503717 0.485130
vt 0.003717 0.992944
vt 0.003717 0.777176
vt 0.495808 0.777176
vt 0.495808 0.992944
vt 0.495808 0.739038
vt 0.003717 0.739038
vt 0.003717 0.523268
vt 0.495808 0.523268
vt 0.495808 0.485130
vt 0.003717 0.485130
vt 0.365070 0.150558
vt 0.350367 0.152310
vt 0.375602 0.157867
vt 0.382568 0.469918
vt 0.366630 0.474868
vt 0.340149 0.160918
vt 0.342616 0.437786
vt 0.404604 0.187340
vt 0.404503 0.404375
vt 0.395705 0.462064
vt 0.353546 0.477538
vt 0.428730 0.435561
vt 0.411117 0.066461
vt 0.379770 0.090481
vt 0.353487 0.057281
vt 0.345719 0.044092
vt 0.628145 0.067995
vt 0.657808 0.039189
vt 0.340874 0.028122
vt 0.665187 0.028706
vt 0.338290 0.015021
vt 0.378112 0.004353
vt 0.663532 0.013992
vt 0.654990 0.003717
vt 0.876240 0.150558
vt 0.861533 0.152283
vt 0.886761 0.157886
vt 0.893190 0.469948
vt 0.877243 0.474870
vt 0.853294 0.437747
vt 0.851301 0.160876
vt 0.906342 0.462116
vt 0.915710 0.187406
vt 0.915237 0.404440
vt 0.864156 0.477518
vt 0.939411 0.435669
vt 0.607713 0.119527
vt 0.605948 0.104827
vt 0.893197 0.127004
vt 0.616332 0.129737
vt 0.613247 0.094287
vt 0.925291 0.087021
vt 0.930255 0.102955
vt 0.932937 0.116036
vt 0.917424 0.073891
vt 0.642690 0.065257
vt 0.859725 0.065150
vt 0.890889 0.040892
vt 0.011071 0.392109
vt 0.003717 0.402610
vt 0.040664 0.363232
vt 0.257696 0.364245
vt 0.315348 0.373285
vt 0.323148 0.386455
vt 0.005407 0.417320
vt 0.288986 0.340149
vt 0.328030 0.402414
vt 0.013973 0.427574
vt 0.290849 0.426272
vt 0.330647 0.415510
vt 0.780583 0.208608
vt 0.756505 0.177305
vt 0.789656 0.150962
vt 0.802832 0.143168
vt 0.779456 0.425641
vt 0.808319 0.455250
vt 0.818793 0.138295
vt 0.818817 0.462609
vt 0.831889 0.135687
vt 0.842630 0.175490
vt 0.833528 0.460927
vt 0.843786 0.452367
vt 0.742508 0.170384
vt 0.750456 0.183466
vt 0.755518 0.199368
vt 0.431227 0.203233
vt 0.438461 0.192649
vt 0.684756 0.161993
vt 0.715772 0.137546
vt 0.758280 0.212433
vt 0.718607 0.223641
vt 0.433082 0.217922
vt 0.467724 0.163438
vt 0.441764 0.228078
vt 0.449320 0.257089
vt 0.666355 0.256647
vt 0.419922 0.286164
vt 0.697480 0.232342
vt 0.724066 0.265299
vt 0.412639 0.296714
vt 0.731954 0.278416
vt 0.414428 0.311413
vt 0.736943 0.294342
vt 0.699923 0.318450
vt 0.423063 0.321609
vt 0.739646 0.307419
# 89 polygons
usemtl lambert13SG
s 1
g StandStatue
f 1/43/1 2/45/2 8/46/3 7/44/4
f 2/33/2 3/34/5 9/35/6 8/36/3
f 3/34/5 4/37/7 10/38/8 9/35/6
f 4/37/7 5/39/9 11/40/10 10/38/8
f 5/39/9 6/41/11 12/42/12 11/40/10
f 6/41/11 1/43/1 7/44/4 12/42/12
s 2
f 98/30/13 93/25/14 96/28/15 99/31/16
s 3
f 13/121/17 14/122/18 73/119/19 74/19/20
s off
f 14/59/21 13/55/22 16/58/23 15/60/24
s 4
f 15/126/25 16/130/26 57/127/27 58/11/28
s 3
f 17/83/29 18/86/30 65/84/31 66/15/32
s off
f 18/73/33 17/72/34 20/71/35 19/74/36
s 4
f 19/152/37 20/153/38 51/147/39 52/8/40
s 3
f 21/87/41 22/88/42 63/89/43 64/14/44
s off
f 22/69/45 21/67/46 24/66/47 23/70/48
s 4
f 23/160/49 24/162/50 45/163/51 46/5/52
s 3
f 25/108/53 26/110/54 69/106/55 70/17/56
s off
f 26/63/57 25/62/58 28/61/59 27/64/60
s 4
f 27/135/61 28/136/62 55/137/63 56/10/64
s 7
f 30/143/65 29/144/66 32/1/67 31/141/68
s off
f 31/141/69 32/1/70 53/9/71 54/138/72
f 33/131/73 34/2/74 59/12/75 60/128/76
s 7
f 34/2/77 33/131/78 36/134/79 35/133/80
s off
f 37/167/81 38/3/82 47/6/83 48/165/84
s 7
f 38/3/85 37/167/86 40/170/87 39/168/88
f 42/154/89 41/155/90 44/4/91 43/149/92
s off
f 43/149/93 44/4/94 49/7/95 50/148/96
s 9
f 46/5/97 45/163/98 48/165/99 47/6/100
f 50/148/101 49/7/102 52/8/103 51/147/104
f 54/138/105 53/9/106 56/10/107 55/137/108
f 58/11/109 57/127/110 60/128/111 59/12/112
s off
f 61/13/113 62/90/114 79/93/115 80/21/116
f 62/90/117 61/13/118 64/14/119 63/89/120
f 66/15/121 65/84/122 68/78/123 67/16/124
f 67/16/125 68/78/126 81/79/127 82/22/128
f 70/17/129 69/106/130 72/102/131 71/18/132
f 71/18/133 72/102/134 85/103/135 86/23/136
f 74/19/137 73/119/138 76/116/139 75/20/140
f 75/20/141 76/116/142 89/117/143 90/24/144
s 2
f 77/48/145 78/53/146 95/27/147 96/28/15
s 12
f 78/95/148 77/96/149 80/21/150 79/93/151
f 82/22/152 81/79/153 84/85/154 83/81/155
s 2
f 83/54/156 84/49/157 99/31/16 100/32/158
s 12
f 86/23/159 85/103/160 88/109/161 87/104/162
s 2
f 87/51/163 88/47/164 93/25/14 94/26/165
s 12
f 90/24/166 89/117/167 92/118/168 91/113/169
s 2
f 91/50/170 92/52/171 97/29/172 98/30/13
s off
f 27/65/173 24/66/174 21/67/175 26/68/176
f 15/60/177 28/61/178 25/62/179 14/59/180
f 13/55/181 18/56/182 19/57/183 16/58/184
f 23/70/185 20/71/186 17/72/187 22/69/188
s 7
f 30/132/65 31/129/68 34/2/77 35/133/80
f 32/1/67 29/144/66 40/146/87 37/145/86
f 38/3/85 39/168/88 42/169/89 43/166/92
s 9
f 46/5/97 47/6/100 50/164/101 51/161/104
f 48/142/99 45/140/98 56/10/107 53/9/106
f 54/124/105 55/123/108 58/11/109 59/12/112
f 60/150/111 57/151/110 52/8/103 49/7/102
s 7
f 44/4/91 41/155/90 36/158/79 33/156/78
s off
f 62/75/189 63/77/190 66/15/191 67/16/192
f 64/14/193 61/13/194 72/94/195 69/92/196
f 70/17/197 71/18/198 76/99/199 73/101/200
s 12
f 78/80/148 79/76/151 82/22/152 83/81/155
f 80/21/150 77/96/149 88/98/161 85/97/160
f 86/23/159 87/104/162 92/105/168 89/100/167
s off
f 74/19/201 75/20/202 68/112/203 65/115/204
s 12
f 90/24/166 91/113/169 84/114/154 81/111/153
s off
f 32/1/205 37/145/206 48/142/207 53/9/208
f 60/150/209 49/7/210 44/4/211 33/156/212
f 38/3/213 43/166/214 50/164/215 47/6/216
f 34/2/217 31/129/218 54/124/219 59/12/220
f 72/94/221 61/13/222 80/21/223 85/97/224
f 76/99/225 71/18/226 86/23/227 89/100/228
f 90/24/229 81/111/230 68/112/231 75/20/232
f 62/75/233 67/16/234 82/22/235 79/76/236
s 4
f 24/139/50 27/135/61 56/10/64 45/140/51
f 16/157/26 19/152/37 52/8/40 57/151/27
f 20/159/38 23/160/49 46/5/52 51/161/39
f 28/125/62 15/126/25 58/11/28 55/123/63
s 3
f 26/91/54 21/87/41 64/14/44 69/92/55
s 2
f 77/48/145 96/28/15 93/25/14 88/47/164
s 3
f 14/107/18 25/108/53 70/17/56 73/101/19
s 2
f 87/51/163 94/26/165 97/29/172 92/52/171
f 91/50/170 98/30/13 99/31/16 84/49/157
s 3
f 18/120/30 13/121/17 74/19/20 65/115/31
f 22/82/42 17/83/29 66/15/32 63/77/43
s 2
f 83/54/156 100/32/158 95/27/147 78/53/146
f 99/31/16 96/28/15 95/27/147 100/32/158
f 94/26/165 93/25/14 98/30/13 97/29/172
# h3dt: 100 170 236 89
